<?xml version="1.0" standalone="no"?><!DOCTYPE svg PUBLIC "-//W3C//DTD SVG 1.1//EN" "http://www.w3.org/Graphics/SVG/1.1/DTD/svg11.dtd"><svg t="1761018262930" class="icon" viewBox="0 0 1024 1024" version="1.1" xmlns="http://www.w3.org/2000/svg" p-id="5553" xmlns:xlink="http://www.w3.org/1999/xlink" width="200" height="200"><path d="M528.151271 793.164176a118.846167 118.846167 0 0 1-49.709695-6.85651 153.128715 153.128715 0 0 1-43.424561-19.141089 10.85614 10.85614 0 0 0-9.713388-1.714127 11.427516 11.427516 0 0 0-7.427886 6.570821 507.6674 507.6674 0 0 1-171.41274 228.550321 11.998892 11.998892 0 0 0-3.999631 14.570083 12.570268 12.570268 0 0 0 11.713204 7.999261h1.714127c142.843951-17.998338 255.119296-103.41902 285.687901-217.122804a10.85614 10.85614 0 0 0-2.571191-9.999077 11.141828 11.141828 0 0 0-10.85614-2.856879zM776.985433 0.951626a74.85023 74.85023 0 0 0-77.707109 38.282179h-1.714128a3.999631 3.999631 0 0 0-3.142566 0 97.99095 97.99095 0 0 0-31.711357-1.428439 5.713758 5.713758 0 0 0-5.142383 4.285318L523.865953 514.332785a142.843951 142.843951 0 0 1-17.426962 37.425115 469.099533 469.099533 0 0 0-40.85337 76.850045 441.673495 441.673495 0 0 0-23.426408 74.564542c-1.714127 7.427885-3.142567 14.570083-4.285319 21.997969a3.713943 3.713943 0 0 0 0 1.714127 5.142382 5.142382 0 0 0 0 4.856694l2.856879 3.999631a124.845613 124.845613 0 0 0 53.709326 26.568975 185.12576 185.12576 0 0 0 46.28144 7.713573 47.424192 47.424192 0 0 0 11.998892 0l6.570821-2.571191a6.285134 6.285134 0 0 0 3.142567-3.428255l9.427701-24.283472a453.672387 453.672387 0 0 0 25.711911-165.413294 112.561033 112.561033 0 0 1 5.142382-37.996491l14.855771-51.138134 121.988734-419.389839a6.570822 6.570822 0 0 0-2.285503-6.570822 88.848937 88.848937 0 0 0-21.426593-12.28458 4.571006 4.571006 0 0 0-3.428255-3.428254A59.994459 59.994459 0 0 1 775.842681 13.236206a5.713758 5.713758 0 0 0 6.570822-5.42807 5.999446 5.999446 0 0 0-5.42807-6.85651zM444.444716 729.170086z" p-id="5554"></path></svg>